<?xml version="1.0" standalone="no"?>
<!DOCTYPE svg PUBLIC "-//W3C//DTD SVG 20010904//EN"
 "http://www.w3.org/TR/2001/REC-SVG-20010904/DTD/svg10.dtd">
<svg version="1.0" xmlns="http://www.w3.org/2000/svg"
 width="512.000000pt" height="512.000000pt" viewBox="0 0 512.000000 512.000000"
 preserveAspectRatio="xMidYMid meet">
<g transform="translate(0.000000,512.000000) scale(0.100000,-0.100000)"
fill="#000000" stroke="none">
<path d="M2330 5110 c-493 -48 -952 -231 -1350 -538 -109 -84 -348 -323 -432
-432 -285 -370 -453 -763 -524 -1230 -25 -161 -25 -539 0 -700 71 -467 239
-859 524 -1230 150 -195 431 -447 662 -594 98 -62 349 -185 471 -230 134 -49
339 -102 499 -128 195 -31 565 -31 760 0 160 26 365 79 499 128 122 45 373
168 471 230 231 147 512 399 662 594 285 371 453 763 524 1230 25 161 25 539
0 700 -71 467 -239 859 -524 1230 -150 195 -431 447 -662 594 -98 62 -349 185
-471 230 -134 49 -340 102 -494 126 -147 23 -475 34 -615 20z m-205 -2005 c88
-19 178 -62 239 -116 52 -46 110 -124 102 -138 -3 -5 -61 -48 -128 -96 -110
-79 -123 -86 -133 -70 -48 84 -123 125 -229 125 -134 0 -226 -94 -242 -247
-17 -165 78 -310 217 -329 92 -13 211 45 242 117 l12 27 125 -74 c69 -41 131
-79 139 -83 42 -25 -82 -166 -198 -224 -102 -51 -200 -71 -325 -65 -119 6
-189 28 -283 89 -171 112 -274 302 -276 509 -2 291 193 520 498 584 47 9 175
5 240 -9z m1115 -6 c0 -12 -57 -239 -66 -263 -6 -15 -1 -17 32 -14 l38 3 35
143 35 142 133 0 c100 0 133 -3 133 -12 0 -7 -16 -73 -34 -145 l-34 -133 99 0
99 0 0 -120 0 -120 -128 0 -129 0 -11 -51 c-7 -28 -12 -55 -12 -60 0 -5 45 -9
100 -9 l100 0 0 -125 0 -125 -133 0 -133 0 -23 -97 c-13 -54 -27 -115 -32
-135 l-10 -38 -135 0 c-134 0 -134 0 -129 23 3 12 16 68 30 124 14 56 25 107
25 113 0 5 -15 10 -33 10 l-33 0 -33 -135 -33 -135 -134 0 c-74 0 -134 3 -134
6 0 3 14 59 30 124 17 65 30 124 30 129 0 7 -32 11 -85 11 l-85 0 0 125 0 125
115 0 c129 0 124 -3 140 84 l7 36 -91 0 -91 0 0 120 0 119 122 3 123 3 33 143
34 142 134 0 c88 0 134 -4 134 -11z"/>
<path d="M3101 2536 c-17 -68 -15 -76 19 -76 33 0 42 15 55 84 7 36 7 36 -28
36 -33 0 -35 -2 -46 -44z"/>
</g>
</svg>
