<?xml version="1.0" standalone="no"?>
<!DOCTYPE svg PUBLIC "-//W3C//DTD SVG 20010904//EN"
 "http://www.w3.org/TR/2001/REC-SVG-20010904/DTD/svg10.dtd">
<svg version="1.0" xmlns="http://www.w3.org/2000/svg"
 width="512.000000pt" height="512.000000pt" viewBox="0 0 512.000000 512.000000"
 preserveAspectRatio="xMidYMid meet">
<g transform="translate(0.000000,512.000000) scale(0.100000,-0.100000)"
fill="#000000" stroke="none">
<path d="M578 4056 c-60 -16 -119 -57 -152 -104 -26 -39 -46 -84 -46 -107 0
-7 293 -206 650 -441 358 -236 847 -559 1087 -717 240 -158 442 -286 448 -285
10 3 764 498 1948 1280 215 142 222 148 220 178 -2 41 -61 127 -108 159 -79
53 7 51 -2070 50 -1525 0 -1940 -3 -1977 -13z"/>
<path d="M370 2559 c0 -757 3 -950 12 -946 7 2 76 45 154 94 78 50 403 256
723 458 474 300 580 370 569 381 -11 10 -710 473 -1285 850 l-173 114 0 -951z"/>
<path d="M4021 3029 c-398 -262 -727 -481 -732 -486 -6 -6 271 -187 722 -472
402 -254 733 -461 735 -458 2 2 3 429 2 949 l-3 944 -724 -477z"/>
<path d="M1238 1827 c-471 -298 -857 -546 -857 -552 -1 -23 49 -113 80 -144
19 -19 54 -44 79 -55 l45 -21 1985 0 1985 0 41 22 c75 40 143 130 144 189 0
18 -133 106 -742 490 -409 258 -795 501 -859 542 l-116 73 -189 -124 c-230
-151 -248 -161 -288 -154 -18 3 -125 66 -239 141 -114 75 -208 136 -210 136
-1 0 -388 -245 -859 -543z"/>
</g>
</svg>
