<?xml version="1.0" standalone="no"?>
<!DOCTYPE svg PUBLIC "-//W3C//DTD SVG 20010904//EN"
 "http://www.w3.org/TR/2001/REC-SVG-20010904/DTD/svg10.dtd">
<svg version="1.0" xmlns="http://www.w3.org/2000/svg"
 width="512.000000pt" height="512.000000pt" viewBox="0 0 512.000000 512.000000"
 preserveAspectRatio="xMidYMid meet">
<g transform="translate(0.000000,512.000000) scale(0.100000,-0.100000)"
fill="#000000" stroke="none">
<path d="M1165 4420 c-321 -58 -597 -234 -769 -493 -121 -182 -155 -288 -225
-703 -94 -563 -139 -985 -163 -1510 -14 -334 -7 -390 73 -552 44 -90 63 -116
147 -201 167 -169 347 -259 537 -268 124 -7 196 10 313 72 157 84 262 180 673
615 154 164 222 222 306 265 l52 26 463 -3 464 -3 59 -35 c42 -24 116 -92 245
-224 512 -526 581 -587 743 -661 104 -47 163 -58 276 -52 156 8 306 71 458
191 102 81 172 167 229 281 67 136 77 200 70 445 -18 582 -90 1222 -207 1843
-86 461 -393 812 -813 932 -136 39 -216 48 -371 42 -162 -6 -193 -14 -430
-109 -261 -106 -337 -118 -733 -118 -399 0 -487 15 -760 126 -218 90 -244 96
-427 100 -88 1 -182 -1 -210 -6z m339 -750 c14 -5 43 -26 65 -46 58 -52 71
-103 71 -281 l0 -143 158 0 c179 0 214 -10 269 -73 71 -80 68 -188 -5 -269
-56 -62 -79 -68 -262 -68 l-160 0 0 -143 c0 -172 -13 -227 -67 -280 -92 -93
-240 -78 -318 31 l-30 44 -3 174 -3 174 -167 0 c-154 0 -170 2 -207 23 -21 12
-53 42 -70 65 -27 39 -30 52 -30 117 0 65 3 78 30 116 17 23 50 53 74 66 41
21 56 23 207 23 l162 0 4 174 3 174 30 43 c40 56 103 89 171 89 29 0 64 -4 78
-10z m2679 -6 c25 -8 66 -33 91 -55 128 -113 134 -309 13 -427 -119 -117 -300
-117 -416 0 -102 102 -113 270 -25 385 32 43 85 82 131 99 52 18 150 17 206
-2z m-466 -800 c144 -68 204 -243 135 -389 -107 -226 -423 -225 -533 1 -32 67
-33 179 0 246 74 153 246 214 398 142z"/>
</g>
</svg>
