<?xml version="1.0" standalone="no"?>
<!DOCTYPE svg PUBLIC "-//W3C//DTD SVG 20010904//EN"
 "http://www.w3.org/TR/2001/REC-SVG-20010904/DTD/svg10.dtd">
<svg version="1.0" xmlns="http://www.w3.org/2000/svg"
 width="512.000000pt" height="512.000000pt" viewBox="0 0 512.000000 512.000000"
 preserveAspectRatio="xMidYMid meet">
<g transform="translate(0.000000,512.000000) scale(0.100000,-0.100000)"
fill="#000000" stroke="none">
<path d="M815 5110 c-63 -10 -125 -26 -193 -51 -247 -90 -470 -314 -561 -561
-60 -163 -56 -12 -56 -1938 0 -1926 -4 -1775 56 -1938 89 -243 315 -472 553
-559 155 -57 145 -56 676 -60 335 -3 507 -1 531 6 48 14 86 54 100 104 7 27 8
132 3 329 -6 260 -9 288 -23 282 -9 -4 -88 -9 -177 -12 -293 -9 -439 34 -569
166 -43 44 -49 54 -119 206 -71 152 -169 276 -254 320 -38 20 -102 94 -102
118 0 39 117 51 206 21 125 -43 217 -119 311 -259 116 -171 232 -251 381 -261
88 -6 194 8 286 38 l65 21 16 75 c19 85 71 193 117 240 l31 32 -34 5 c-19 3
-66 10 -105 16 -227 32 -469 127 -629 247 -187 139 -301 339 -367 644 -19 90
-22 134 -22 324 0 211 1 224 27 308 48 154 120 290 199 373 l29 31 -20 60
c-31 93 -43 216 -31 325 6 51 12 100 15 108 2 8 15 54 29 102 26 85 27 87 62
94 98 18 384 -87 601 -223 l72 -45 93 21 c218 47 339 61 548 61 209 0 330 -14
548 -61 l93 -21 73 46 c224 140 497 242 597 223 35 -7 36 -9 63 -95 40 -134
48 -196 44 -337 -4 -100 -10 -145 -27 -194 l-22 -64 29 -31 c80 -84 153 -222
198 -373 22 -73 27 -115 31 -244 14 -405 -92 -742 -298 -948 -171 -171 -422
-286 -724 -331 -38 -5 -85 -12 -103 -15 l-33 -6 34 -39 c49 -58 85 -128 109
-217 20 -73 22 -109 27 -583 7 -579 2 -548 93 -575 43 -12 125 -15 499 -15
475 0 547 5 682 51 271 93 503 326 596 597 53 156 52 100 48 1958 -3 1716 -3
1719 -24 1789 -58 194 -119 300 -246 432 -128 133 -252 206 -452 266 -70 21
-70 21 -1800 23 -952 1 -1752 -2 -1780 -6z"/>
<path d="M909 1479 c-11 -7 -10 -12 8 -30 24 -24 57 -19 51 7 -4 21 -40 35
-59 23z"/>
<path d="M1011 1386 c-16 -19 28 -72 52 -63 22 8 22 40 -1 60 -23 21 -36 21
-51 3z"/>
<path d="M1111 1256 c-10 -11 -9 -21 3 -44 19 -37 41 -46 61 -26 20 20 19 26
-6 58 -23 29 -41 33 -58 12z"/>
<path d="M1235 1110 c-16 -18 -17 -21 -1 -45 17 -26 57 -42 75 -30 17 10 13
50 -6 67 -30 25 -50 28 -68 8z"/>
<path d="M1400 991 c-13 -25 7 -47 50 -56 37 -8 50 0 50 30 0 43 -79 64 -100
26z"/>
<path d="M1812 988 c-35 -35 5 -75 56 -57 35 12 48 35 31 55 -14 17 -71 18
-87 2z"/>
<path d="M1628 973 c-20 -5 -30 -27 -22 -48 14 -37 104 -25 104 13 0 35 -31
49 -82 35z"/>
</g>
</svg>
