<?xml version="1.0" standalone="no"?>
<!DOCTYPE svg PUBLIC "-//W3C//DTD SVG 20010904//EN"
 "http://www.w3.org/TR/2001/REC-SVG-20010904/DTD/svg10.dtd">
<svg version="1.0" xmlns="http://www.w3.org/2000/svg"
 width="512.000000pt" height="512.000000pt" viewBox="0 0 512.000000 512.000000"
 preserveAspectRatio="xMidYMid meet">
<g transform="translate(0.000000,512.000000) scale(0.100000,-0.100000)"
fill="#000000" stroke="none">
<path d="M2495 5106 c-39 -18 -70 -48 -92 -89 -16 -29 -18 -65 -18 -337 0
-341 0 -342 72 -397 31 -24 46 -28 103 -28 57 0 72 4 103 28 72 55 72 56 72
397 0 300 0 306 -23 345 -44 78 -145 115 -217 81z"/>
<path d="M792 4399 c-95 -47 -123 -156 -64 -251 11 -18 110 -121 219 -229 213
-211 237 -227 317 -215 51 8 113 56 132 102 17 40 18 92 4 131 -16 41 -416
441 -465 464 -52 24 -90 24 -143 -2z"/>
<path d="M4185 4401 c-49 -23 -449 -424 -465 -464 -24 -65 -5 -141 46 -189 50
-47 96 -57 169 -37 31 9 79 50 238 208 109 108 210 215 224 238 85 144 -64
316 -212 244z"/>
<path d="M2440 3840 c-292 -28 -561 -153 -770 -360 -232 -229 -360 -496 -390
-812 -53 -577 313 -1134 871 -1324 320 -108 672 -86 972 62 339 168 594 485
686 854 158 639 -209 1301 -840 1516 -167 56 -360 80 -529 64z m383 -384 c316
-95 536 -314 634 -633 25 -81 27 -101 27 -263 0 -162 -2 -182 -27 -263 -51
-166 -134 -304 -248 -413 -110 -104 -230 -173 -386 -221 -81 -25 -101 -27
-263 -27 -162 0 -182 2 -263 27 -319 98 -536 315 -634 634 -25 81 -27 101 -27
263 0 162 2 182 27 263 106 345 353 572 708 652 45 10 108 14 214 11 127 -3
164 -8 238 -30z"/>
<path d="M138 2731 c-14 -5 -39 -16 -55 -26 -111 -65 -103 -243 14 -301 35
-17 63 -19 345 -19 l306 0 43 30 c52 37 79 86 79 145 0 59 -27 108 -79 145
l-43 30 -291 2 c-161 1 -304 -2 -319 -6z"/>
<path d="M4383 2731 c-77 -19 -133 -92 -133 -173 0 -57 27 -106 79 -143 l43
-30 306 0 c302 0 308 0 347 23 61 35 90 84 90 152 0 68 -29 117 -90 152 -39
22 -47 23 -325 25 -157 1 -300 -2 -317 -6z"/>
<path d="M1181 1408 c-42 -12 -419 -379 -458 -445 -62 -106 -1 -240 120 -260
73 -12 99 7 326 231 117 116 219 225 227 243 27 63 14 135 -34 187 -49 52
-107 66 -181 44z"/>
<path d="M3800 1398 c-77 -39 -114 -121 -90 -201 10 -34 50 -80 218 -250 256
-257 290 -276 392 -225 77 39 114 121 90 201 -10 34 -50 81 -218 251 -254 256
-289 276 -392 224z"/>
<path d="M2485 855 c-41 -22 -64 -44 -84 -80 -14 -26 -16 -71 -16 -335 0 -300
0 -306 23 -345 35 -61 84 -90 152 -90 68 0 117 29 152 90 23 39 23 45 23 345
0 341 0 343 -71 396 -45 35 -133 44 -179 19z"/>
</g>
</svg>
